<svg viewBox="0 0 1280 1280" xmlns="http://www.w3.org/2000/svg"><path d="M1090 376v60H816v2l2.426.719c4.446 1.594 8.554 3.646 12.762 5.781l2.326 1.164c5 2.518 9.958 5.11 14.904 7.73C859.854 459.45 871.41 465.248 883 471c20.749 10.299 20.749 10.299 30.875 15.688 8.37 4.447 16.831 8.706 25.312 12.938l2.054 1.024c4.918 2.453 9.838 4.902 14.759 7.35 5.605 2.79 11.21 5.58 16.812 8.376l2.061 1.028c7.56 3.774 15.096 7.584 22.552 11.562 8.359 4.457 16.825 8.692 25.305 12.914l2.135 1.063a15596.185 15596.185 0 0026.38 13.109 1002.36 1002.36 0 0110.579 5.324l3.98 2.033 1.913.98a130.204 130.204 0 0010.841 4.889c4.28 1.784 7.286 3.252 10.441 6.723 2.518 6.858 1.827 14.27 1.5 21.438a752.724 752.724 0 00-.074 5.78 501.748 501.748 0 01-.266 11.348c-.193 5.829-.183 11.65-.097 17.48.04 4.754-.393 9.259-1.063 13.954-5.92-1.855-11.539-4.016-17.145-6.668l-2.287-1.065c-1.62-.755-3.238-1.512-4.855-2.27a3580.524 3580.524 0 00-13.08-6.09l-2.699-1.253c-8.746-4.048-17.553-7.955-26.372-11.842a1466.959 1466.959 0 01-35.532-16.245c-10.423-4.927-20.918-9.667-31.468-14.318-13.09-5.771-26.096-11.705-39.062-17.75a2214.036 2214.036 0 00-41.555-18.864 1695.516 1695.516 0 01-33.637-15.308A828.876 828.876 0 00816 523c4.746 6.077 9.655 11.934 14.848 17.633A383.262 383.262 0 01836.5 547c2.637 3.028 5.31 6.02 8 9a818.088 818.088 0 019.707 10.961 577.883 577.883 0 005.98 6.665c3.597 3.98 7.092 8.035 10.562 12.125 4.77 5.61 9.704 11.039 14.736 16.412a362.878 362.878 0 019.842 10.916c2.03 2.332 4.1 4.627 6.172 6.921a637.25 637.25 0 017.937 8.938c2.811 3.228 5.679 6.4 8.563 9.562a642.837 642.837 0 0110.223 11.473 651.885 651.885 0 006.277 7.028 826.275 826.275 0 019.688 10.938c2.845 3.237 5.74 6.43 8.629 9.629a536.478 536.478 0 015.62 6.37c2.811 3.229 5.68 6.4 8.563 9.563a642.837 642.837 0 0110.223 11.473 651.885 651.885 0 006.278 7.028 826.275 826.275 0 019.687 10.938 718.155 718.155 0 006.313 7.062c2.69 2.98 5.363 5.973 8 9 4.11 4.717 8.306 9.356 12.5 14 4.767 5.28 9.515 10.573 14.188 15.938a718.155 718.155 0 006.312 7.063c2.69 2.98 5.363 5.972 8 9 4.11 4.717 8.307 9.356 12.5 14 4.764 5.275 9.51 10.563 14.176 15.926 2.867 3.26 5.79 6.468 8.711 9.68l2.113 2.394 2.103 2.01c2.766 4.358 2.434 8.147 2.367 13.209l.007 3.11c.002 3.391-.024 6.78-.05 10.17-.006 2.358-.01 4.715-.01 7.073-.009 4.94-.03 9.879-.06 14.818-.04 6.332-.058 12.664-.067 18.996-.01 6.038-.03 12.076-.051 18.114l-.01 3.493c-.012 3.263-.03 6.525-.052 9.788l-.008 2.925-.022 2.702-.012 2.335c-.149 2.49-.595 4.825-1.135 7.257-3.565-2.69-6.357-5.439-9.125-8.938l-2.351-2.933-1.24-1.547c-2.216-2.731-4.502-5.404-6.784-8.082a685.975 685.975 0 01-9.937-11.938c-4.898-6.014-9.952-11.89-15.014-17.764a3695.11 3695.11 0 01-6.056-7.056l-2.987-3.485c-2.53-2.95-5.057-5.903-7.576-8.863-5.465-6.413-11-12.734-16.695-18.945-2.53-2.774-5-5.596-7.465-8.43-3.545-4.046-7.164-8.026-10.77-12.02l-4.5-5-2.257-2.508c-1.476-1.64-2.95-3.28-4.422-4.921a2181.089 2181.089 0 00-17.82-19.57l-1.418-1.543c-15.603-17.088-15.603-17.088-31.78-33.624-1.636-1.664-3.134-3.372-4.634-5.157-5.783-6.645-12.12-12.772-18.351-18.992a11427.866 11427.866 0 00-12.822-12.82c-3.69-3.683-7.374-7.372-11.058-11.062-2.852-2.856-5.707-5.71-8.563-8.562a5221.08 5221.08 0 01-4.074-4.078c-9.155-9.215-9.155-9.215-18.811-17.895-2.119-1.805-4.051-3.77-5.988-5.767a167.36 167.36 0 00-10.215-9.496c-2.35-2.061-4.636-4.179-6.92-6.312a293.859 293.859 0 00-16.682-14.477c-2.836-2.34-5.542-4.786-8.246-7.277a214.394 214.394 0 00-12.676-10.766 464.44 464.44 0 01-6.054-4.844c-9.994-8.113-20.283-15.778-30.707-23.328l-2.164-1.579c-34.126-24.852-77.64-54.008-121.94-47.704-47.154 7.797-90.612 41.055-126.9 70.282l-1.945 1.563c-7.573 6.091-15.081 12.252-22.476 18.559a433.812 433.812 0 01-10.017 8.253c-5.693 4.628-11.013 9.619-16.36 14.637a220.113 220.113 0 01-7.14 6.426c-5.833 5.04-11.403 10.377-17.023 15.652a1945.18 1945.18 0 01-6.075 5.66c-7.173 6.673-14.247 13.415-21.098 20.42-2.762 2.808-5.58 5.479-8.573 8.041-4.262 3.712-8.277 7.628-12.266 11.63l-2.203 2.199c-1.524 1.524-3.048 3.049-4.57 4.576a3849.228 3849.228 0 01-6.944 6.937l-4.47 4.475-2.069 2.062a232.84 232.84 0 00-11.203 12.119c-1.965 2.244-4.036 4.356-6.162 6.447l-2.434 2.41-4.945 4.868c-4.334 4.291-8.487 8.648-12.46 13.275-2.241 2.56-4.633 4.913-7.068 7.29a184.233 184.233 0 00-10.89 11.673c-1.636 1.857-3.345 3.594-5.11 5.328a115.071 115.071 0 00-6.563 7c-3.535 4.105-7.23 8.05-10.938 12-4.175 4.453-8.313 8.92-12.297 13.547-2.196 2.519-4.45 4.984-6.703 7.453a675.202 675.202 0 00-14.746 16.719 17589.73 17589.73 0 01-3.066 3.594l-1.567 1.836a418.707 418.707 0 01-9.808 11.04c-4.047 4.408-7.84 8.972-11.598 13.628-2.171 2.63-4.417 5.163-6.715 7.684-5.182 5.694-10.001 11.666-14.836 17.655a1197.92 1197.92 0 01-4.102 5.032l-2.496 3.075-2.066 2.238h-2c-1.134-18.333-1.633-36.661-1.86-55.026a888.32 888.32 0 00-.327-16.021 648.868 648.868 0 01-.275-15.682 215.689 215.689 0 00-.155-5.905c-.383-9.999-.126-17.404 6.747-25.137 2.548-2.587 5.197-5.025 7.922-7.423 2.68-2.483 5.029-5.2 7.393-7.98 2.433-2.855 4.999-5.582 7.555-8.325 3.213-3.462 6.411-6.926 9.5-10.5 3.558-4.113 7.258-8.09 10.955-12.08 3.794-4.097 7.54-8.234 11.268-12.393 2.575-2.858 5.174-5.694 7.777-8.527 4.87-5.301 9.695-10.641 14.5-16a1959.753 1959.753 0 0115.914-17.54c2.88-3.137 5.742-6.29 8.587-9.46 3.31-3.689 6.647-7.351 10-11 4.87-5.302 9.694-10.641 14.5-16 5.27-5.876 10.57-11.721 15.909-17.534 4.397-4.792 8.748-9.624 13.09-14.466a1959.753 1959.753 0 0115.915-17.54c2.88-3.137 5.741-6.291 8.586-9.46 3.776-4.208 7.59-8.378 11.414-12.54 2.88-3.137 5.741-6.291 8.586-9.46 3.31-3.69 6.647-7.351 10-11 4.87-5.302 9.694-10.642 14.5-16a1722.085 1722.085 0 0114.625-16.126 534.255 534.255 0 0010.52-11.773c1.855-2.1 3.748-4.163 5.65-6.22a635.033 635.033 0 0013.83-15.444l1.58-1.805c2.175-2.53 3.73-4.434 4.796-7.632-16.06 6.097-32.036 12.352-47.875 19a4476.94 4476.94 0 01-43.438 17.938l-6.33 2.579-9.387 3.825a12043.52 12043.52 0 00-29.095 11.908l-2.383.979c-3.927 1.611-7.853 3.224-11.778 4.836-7.255 2.979-14.51 5.955-21.765 8.93l-12.218 5.013-2.44 1.001c-6.423 2.635-12.845 5.27-19.266 7.907a20430.785 20430.785 0 01-16.802 6.89l-2.449 1.003a6927.983 6927.983 0 00-16.8 6.918c-4.079 1.684-8.16 3.365-12.24 5.044-1.979.816-3.957 1.633-5.934 2.452-2.749 1.14-5.5 2.271-8.252 3.402l-2.494 1.04-2.292.937-1.992.823c-1.769.575-1.769.575-4.769.575-.206-49.965-.206-49.965 1-70 11.768-6.012 23.697-11.585 35.75-17l5.57-2.511a6344.8 6344.8 0 0136.856-16.452c14.252-6.315 28.456-12.733 42.655-19.167l5.271-2.389 2.586-1.17c13.204-5.981 26.439-11.894 39.67-17.812a11724.15 11724.15 0 0049.37-22.233 6681.35 6681.35 0 0126.878-12.124l1.992-.892c2.968-1.328 5.937-2.654 8.908-3.977 8.211-3.667 16.34-7.467 24.494-11.271l-281-1v-59c53.187-.097 106.37-.193 159.56-.286l2.447-.004a3978674.458 3978674.458 0 0181.434-.142c25.467-.044 50.935-.09 76.402-.136a734923.67 734923.67 0 01123.847-.217c85.136-.143 170.27-.238 456.31-.215z" fill="#FEFEFE"/></svg>